<svg width="100" height="100" viewBox="0 0 100 100" fill="none" xmlns="http://www.w3.org/2000/svg">
<path d="M77.2657 62.3125C76.2891 60.5391 77.5313 58.7344 79.6563 56.5C83.0235 52.9531 86.6875 44.7266 83.2813 36.375C83.3047 36.3281 82.6094 34.9219 82.6328 34.875L81.2344 34.8047C80.7891 34.7422 65.4063 34.7109 50.0078 34.7109C34.6094 34.7109 19.2266 34.7422 18.7813 34.8047C18.7813 34.8047 16.711 36.3281 16.7266 36.375C13.3282 44.7266 16.9844 52.9531 20.3516 56.5C22.4688 58.7344 23.711 60.5391 22.7422 62.3125C21.7969 64.0391 18.9844 64.2891 18.9844 64.2891C18.9844 64.2891 19.6328 66.0547 21.1953 67.0078C22.6407 67.8906 24.4219 68.0937 25.6485 68.125C25.6485 68.125 30.4532 74.7734 43.0157 74.7734H57C69.5625 74.7734 74.3672 68.125 74.3672 68.125C75.5938 68.0937 77.375 67.8906 78.8203 67.0078C80.3828 66.0547 81.0313 64.2891 81.0313 64.2891C81.0313 64.2891 78.211 64.0313 77.2657 62.3125Z" fill="#312D2D"/>
<path d="M49.9922 74.7656V67.3906L72.3125 65.625L74.3438 68.125C74.3438 68.125 69.5391 74.7734 56.9766 74.7734L49.9922 74.7656Z" fill="url(#paint0_radial_14_71)"/>
<path d="M74.2968 64.8984C70.9531 59.8203 78.3672 57.9219 78.3672 57.9219L78.375 57.9297C77.0859 59.5313 76.5 60.9297 77.2578 62.3125C78.2031 64.0391 81.0156 64.2891 81.0156 64.2891C81.0156 64.2891 77.1797 67.6953 74.2968 64.8984Z" fill="url(#paint1_radial_14_71)"/>
<path d="M83.2969 36.375C86.6172 44.4609 83.125 52.7891 79.8516 56.3047C79.4063 56.7891 77.5 58.6562 77.0625 60.1484C77.0625 60.1484 69.6094 49.75 67.3828 43.6406C66.9375 42.4062 66.5234 41.1406 66.4688 39.8281C66.4297 38.8437 66.5781 37.6719 67.1484 36.8359C67.8437 35.8125 82.8984 35.5078 82.8984 35.5078C82.8984 35.5156 83.2969 36.375 83.2969 36.375Z" fill="url(#paint2_radial_14_71)"/>
<path d="M16.7188 36.375C13.3985 44.4609 16.8907 52.7891 20.1641 56.3047C20.6172 56.7891 22.5157 58.6562 22.9532 60.1484C22.9532 60.1484 30.4063 49.75 32.6329 43.6406C33.086 42.4062 33.4922 41.1406 33.5469 39.8281C33.586 38.8437 33.4376 37.6719 32.8672 36.8359C32.1719 35.8125 31.3594 36.0859 30.1797 36.0859C27.9297 36.0859 18.0782 35.5078 17.3126 35.5078C17.3204 35.5156 16.7188 36.375 16.7188 36.375Z" fill="url(#paint3_radial_14_71)"/>
<path d="M50.0234 74.7656V67.3906L27.7031 65.625L25.6719 68.125C25.6719 68.125 30.4766 74.7734 43.0391 74.7734L50.0234 74.7656Z" fill="url(#paint4_radial_14_71)"/>
<path d="M25.7187 64.8984C29.0625 59.8203 21.6484 57.9219 21.6484 57.9219L21.6406 57.9297C22.9297 59.5313 23.5156 60.9297 22.7578 62.3125C21.8125 64.0391 19 64.2891 19 64.2891C19 64.2891 22.8359 67.6953 25.7187 64.8984Z" fill="url(#paint5_radial_14_71)"/>
<path d="M57.6406 87.5312V69.7266H42.3516V87.5312H57.6406ZM71.3516 39.3281H28.6484C24.0469 39.3281 20.2812 43.3359 20.2812 48.2422C20.2812 53.1484 24.0469 57.1563 28.6484 57.1563H71.3438C75.9453 57.1563 79.7109 53.1406 79.7109 48.2422C79.7188 43.3438 75.9531 39.3281 71.3516 39.3281Z" fill="#EDC391"/>
<path d="M50 8.57812C36.4063 8.57812 23.8125 23.1172 23.8125 44.0469C23.8125 64.8594 36.7891 75.1484 50 75.1484C63.2109 75.1484 76.1875 64.8594 76.1875 44.0469C76.1875 23.1172 63.5938 8.57812 50 8.57812Z" fill="#F9DDBD"/>
<path d="M42.8126 38.8438C42.086 37.8828 40.4141 36.4922 37.1641 36.4922C33.9141 36.4922 32.2344 37.8906 31.5157 38.8438C31.1954 39.2656 31.2735 39.7578 31.5001 40.0547C31.7032 40.3281 32.3126 40.5859 32.9844 40.3594C33.6563 40.1328 34.9688 39.4531 37.1641 39.4375C39.3594 39.4531 40.6719 40.1328 41.3438 40.3594C42.0157 40.5859 42.6251 40.3359 42.8282 40.0547C43.0469 39.7656 43.1329 39.2734 42.8126 38.8438ZM68.4922 38.8438C67.7657 37.8828 66.0938 36.4922 62.8438 36.4922C59.5938 36.4922 57.9141 37.8906 57.1954 38.8438C56.8751 39.2656 56.9532 39.7578 57.1797 40.0547C57.3829 40.3281 57.9922 40.5859 58.6641 40.3594C59.336 40.1328 60.6485 39.4531 62.8438 39.4375C65.0391 39.4531 66.3516 40.1328 67.0235 40.3594C67.6954 40.5859 68.3047 40.3359 68.5079 40.0547C68.7266 39.7656 68.8126 39.2734 68.4922 38.8438Z" fill="#454140"/>
<path d="M37.1563 49.8594C39.2834 49.8594 41.0078 48.0755 41.0078 45.875C41.0078 43.6745 39.2834 41.8906 37.1563 41.8906C35.0291 41.8906 33.3047 43.6745 33.3047 45.875C33.3047 48.0755 35.0291 49.8594 37.1563 49.8594Z" fill="#312D2D"/>
<path d="M62.8438 49.8594C64.9709 49.8594 66.6953 48.0755 66.6953 45.875C66.6953 43.6745 64.9709 41.8906 62.8438 41.8906C60.7166 41.8906 58.9922 43.6745 58.9922 45.875C58.9922 48.0755 60.7166 49.8594 62.8438 49.8594Z" fill="#312D2D"/>
<path d="M56.5782 59.4141C54.0938 60.8907 45.9297 60.8907 43.4454 59.4141C42.0157 58.5625 40.5547 59.8672 41.1485 61.1641C41.7344 62.4375 46.1797 65.3985 50.0313 65.3985C53.8829 65.3985 58.2735 62.4375 58.8594 61.1641C59.4454 59.8672 58.0079 58.5625 56.5782 59.4141Z" fill="#444444"/>
<path d="M53.0156 53.0938C52.9297 53.0625 52.8516 53.0391 52.7656 53.0312H47.2344C47.1484 53.0391 47.0625 53.0625 46.9844 53.0938C46.4844 53.2969 46.2109 53.8125 46.4453 54.3672C46.6797 54.9219 47.7813 56.4688 50 56.4688C52.2188 56.4688 53.3203 54.9141 53.5547 54.3672C53.7891 53.8203 53.5156 53.2969 53.0156 53.0938Z" fill="#DBA689"/>
<path d="M77.5546 18.3203C76.9374 14.6328 66.7343 8.07025 62.914 6.85932C52.5703 3.58588 45.8437 4.914 42.2343 6.88275C41.4843 7.289 36.6328 9.98432 33.2421 8.05463C31.1171 6.84369 25.0156 16.5234 21.9453 18.3749C18.3593 20.539 18.6718 24.4765 19.2187 26.0078C17.2499 27.6796 14.7734 31.2343 16.4687 35.8515C17.7499 39.3281 22.8515 40.9296 22.8515 40.9296C22.3671 49.3203 24.6328 53.3906 24.6328 53.3906C24.6328 53.3906 28.2968 38.9765 27.9921 36.7734C27.9921 36.7734 34.0546 35.5703 40.9374 31.6328C45.5859 28.9687 48.7656 25.8515 53.9921 24.6718C61.9453 22.8828 63.7187 28.6406 63.7187 28.6406C63.7187 28.6406 71.0781 27.2265 73.2968 37.4453C74.2109 41.6484 74.8046 48.6171 75.3046 52.8906C75.2578 52.5156 77.8359 47.9453 78.3203 43.2578C78.4453 42.0468 81.7109 40.4453 83.1171 35.2421C84.9921 28.3046 82.9296 20.789 77.5546 18.3203Z" fill="#312D2D"/>
<path d="M83.125 35.2344C81.9531 39.5547 79.5078 41.3906 78.6328 42.5859C77.4297 35.2656 77.6172 28.3125 68.7031 20.0781C68.7031 20.0781 70.4922 19.6953 71.3672 18.1016C72.0469 16.8594 71.7891 15.3125 71.7891 15.3125C72.0859 15.3281 72.3906 15.3594 72.7031 15.3984C74.2344 15.6797 75.7969 16.4297 77.2266 17.3906C77.3984 17.7187 77.5078 18.0313 77.5547 18.3203C82.9297 20.7813 85 28.2969 83.125 35.2344Z" fill="url(#paint6_radial_14_71)"/>
<path d="M19.039 26.1641C17.1875 27.8047 14.6953 31.4687 16.5312 36.0156C17.914 39.4453 22.8515 40.9297 22.8515 40.9297C22.8515 40.9453 23.8359 41.2422 24.3437 41.2422L25.5 24.1328C23.1328 24.1328 20.8593 24.8438 19.3906 25.8672C19.414 25.8906 19.0312 26.1406 19.039 26.1641Z" fill="url(#paint7_radial_14_71)"/>
<path d="M25.5391 24.1406V24.1016C23.1719 24.1016 20.9063 24.8125 19.4297 25.8281C19.4297 25.8516 19.3125 25.9375 19.2188 26.0078V26C19.2266 25.9922 19.2422 25.9844 19.25 25.9766C18.7032 24.4453 18.3829 20.5078 21.9766 18.3437C22.3204 18.1328 22.7032 17.8281 23.1172 17.4453C24.0704 17.0547 25.086 16.8281 26.0235 16.7344C26.2969 16.7109 26.7969 16.6719 26.9454 16.6719L30.7032 17.1328L25.5391 24.1406Z" fill="url(#paint8_radial_14_71)"/>
<path d="M91.1484 41.6406C90.1797 41.6406 89.3906 42.3906 89.3906 43.3125V50.5C89.3906 51.4219 90.1797 52.1719 91.1484 52.1719C92.1172 52.1719 92.9062 51.4219 92.9062 50.5V43.3125C92.9062 42.3906 92.1172 41.6406 91.1484 41.6406ZM87.6328 41.6406C86.6641 41.6406 85.875 42.3906 85.875 43.3125V50.5C85.875 51.4219 86.6641 52.1719 87.6328 52.1719C88.6016 52.1719 89.3906 51.4219 89.3906 50.5V43.3125C89.3906 42.3906 88.6016 41.6406 87.6328 41.6406Z" fill="#E8AD00"/>
<path d="M89.3906 41.6406C88.4219 41.6406 87.6328 42.3906 87.6328 43.3125V52.0547C87.6328 52.9766 88.4219 53.7266 89.3906 53.7266C90.3594 53.7266 91.1484 52.9766 91.1484 52.0547V43.3125C91.1484 42.3906 90.3594 41.6406 89.3906 41.6406Z" fill="#FFCA28"/>
<path d="M89.3906 42.7344C90.5815 42.7344 91.5469 41.8145 91.5469 40.6797C91.5469 39.5449 90.5815 38.625 89.3906 38.625C88.1998 38.625 87.2344 39.5449 87.2344 40.6797C87.2344 41.8145 88.1998 42.7344 89.3906 42.7344Z" fill="#FFCA28"/>
<path d="M89.3906 40.6562C88.9609 40.6562 88.6094 40.3047 88.6094 39.875V10.1875C88.6094 9.75781 88.9609 9.40625 89.3906 9.40625C89.8203 9.40625 90.1719 9.75781 90.1719 10.1875V39.875C90.1719 40.3047 89.8203 40.6562 89.3906 40.6562Z" fill="#504F4F"/>
<path d="M90.1719 9.375C66.0859 3.32031 49.5469 3.125 49.5469 3.125C49.5469 3.125 33.0078 3.32031 8.92188 9.375V9.97656C8.92188 11.0156 9.60156 11.9297 10.5938 12.2188C13.5 13.0781 19.5547 14.8281 23.5078 15.625C23.5078 15.625 22.6406 16.9609 21.9453 18.375C21.9453 18.375 29.7188 23 49.5469 25C69.375 23 77.5547 18.3203 77.5547 18.3203C76.8672 16.9063 76.0078 15.625 76.0078 15.625C79.5234 15.0469 85.6328 13.1719 88.5391 12.25C89.5156 11.9375 90.1719 11.0391 90.1719 10.0156V9.375Z" fill="url(#paint9_linear_14_71)"/>
<path d="M49.5469 3.125C49.5469 3.125 33.0078 3.32031 8.92188 9.375C8.92188 9.375 36.5859 16.9297 49.5469 16.7031C62.5078 16.9297 90.1719 9.375 90.1719 9.375C66.0781 3.32031 49.5469 3.125 49.5469 3.125Z" fill="url(#paint10_linear_14_71)"/>
<path opacity="0.4" d="M90.1719 9.375C66.0859 3.32031 49.5469 3.125 49.5469 3.125C49.5469 3.125 33.0078 3.32031 8.92188 9.375V9.97656C8.92188 11.0156 9.60156 11.9297 10.5938 12.2188C13.5 13.0781 19.5547 14.8281 23.5078 15.625C23.5078 15.625 22.6406 16.9609 21.9453 18.375C21.9453 18.375 29.7188 23 49.5469 25C69.375 23 77.5547 18.3203 77.5547 18.3203C76.8672 16.9063 76.0078 15.625 76.0078 15.625C79.5234 15.0469 85.6328 13.1719 88.5391 12.25C89.5156 11.9375 90.1719 11.0391 90.1719 10.0156V9.375Z" fill="url(#paint11_linear_14_71)"/>
<path d="M89.4531 94.5234C89.4531 83.1094 72.4609 77.6953 57.6406 76.4766L50.9219 85.0937C50.7031 85.375 50.3594 85.5469 50 85.5469C49.6406 85.5469 49.2969 85.3828 49.0781 85.0937L42.3438 76.4609C34.1016 77.0938 10.5391 80.1719 10.5391 94.5234V96.875H89.4453L89.4531 94.5234Z" fill="#212121"/>
<path d="M89.4531 94.5234C89.4531 83.1094 72.4609 77.6953 57.6406 76.4766L50.9219 85.0937C50.7031 85.375 50.3594 85.5469 50 85.5469C49.6406 85.5469 49.2969 85.3828 49.0781 85.0937L42.3438 76.4609C34.1016 77.0938 10.5391 80.1719 10.5391 94.5234V96.875H89.4453L89.4531 94.5234Z" fill="url(#paint12_radial_14_71)"/>
<defs>
<radialGradient id="paint0_radial_14_71" cx="0" cy="0" r="1" gradientUnits="userSpaceOnUse" gradientTransform="translate(61.393 64.108) scale(18.2961 8.98704)">
<stop offset="0.728" stop-color="#454140" stop-opacity="0"/>
<stop offset="1" stop-color="#454140"/>
</radialGradient>
<radialGradient id="paint1_radial_14_71" cx="0" cy="0" r="1" gradientUnits="userSpaceOnUse" gradientTransform="translate(79.415 61.3862) rotate(154.924) scale(5.40676 4.01104)">
<stop offset="0.663" stop-color="#454140"/>
<stop offset="1" stop-color="#454140" stop-opacity="0"/>
</radialGradient>
<radialGradient id="paint2_radial_14_71" cx="0" cy="0" r="1" gradientUnits="userSpaceOnUse" gradientTransform="translate(65.4025 46.0935) rotate(-94.2783) scale(23.7489 19.7932)">
<stop offset="0.725" stop-color="#454140" stop-opacity="0"/>
<stop offset="1" stop-color="#454140"/>
</radialGradient>
<radialGradient id="paint3_radial_14_71" cx="0" cy="0" r="1" gradientUnits="userSpaceOnUse" gradientTransform="translate(34.6157 46.0931) rotate(-85.7217) scale(23.7489 19.7932)">
<stop offset="0.725" stop-color="#454140" stop-opacity="0"/>
<stop offset="1" stop-color="#454140"/>
</radialGradient>
<radialGradient id="paint4_radial_14_71" cx="0" cy="0" r="1" gradientUnits="userSpaceOnUse" gradientTransform="translate(38.6242 64.108) rotate(180) scale(18.2961 8.98704)">
<stop offset="0.728" stop-color="#454140" stop-opacity="0"/>
<stop offset="1" stop-color="#454140"/>
</radialGradient>
<radialGradient id="paint5_radial_14_71" cx="0" cy="0" r="1" gradientUnits="userSpaceOnUse" gradientTransform="translate(20.6043 61.3867) rotate(25.0761) scale(5.40676 4.01104)">
<stop offset="0.663" stop-color="#454140"/>
<stop offset="1" stop-color="#454140" stop-opacity="0"/>
</radialGradient>
<radialGradient id="paint6_radial_14_71" cx="0" cy="0" r="1" gradientUnits="userSpaceOnUse" gradientTransform="translate(64.7428 33.9544) rotate(72.0851) scale(26.4652 19.6366)">
<stop offset="0.699" stop-color="#454140" stop-opacity="0"/>
<stop offset="1" stop-color="#454140"/>
</radialGradient>
<radialGradient id="paint7_radial_14_71" cx="0" cy="0" r="1" gradientUnits="userSpaceOnUse" gradientTransform="translate(30.106 33.8275) rotate(7.83355) scale(13.1926 18.5378)">
<stop offset="0.598" stop-color="#454140" stop-opacity="0"/>
<stop offset="1" stop-color="#454140"/>
</radialGradient>
<radialGradient id="paint8_radial_14_71" cx="0" cy="0" r="1" gradientUnits="userSpaceOnUse" gradientTransform="translate(28.9726 25.1747) rotate(-164.942) scale(10.1105 9.46162)">
<stop offset="0.66" stop-color="#454140" stop-opacity="0"/>
<stop offset="1" stop-color="#454140"/>
</radialGradient>
<linearGradient id="paint9_linear_14_71" x1="49.5445" y1="-0.260156" x2="49.5445" y2="22.1148" gradientUnits="userSpaceOnUse">
<stop offset="0.003" stop-color="#424242"/>
<stop offset="0.472" stop-color="#353535"/>
<stop offset="1" stop-color="#212121"/>
</linearGradient>
<linearGradient id="paint10_linear_14_71" x1="49.5445" y1="-0.130468" x2="49.5445" y2="24.0883" gradientUnits="userSpaceOnUse">
<stop offset="0.003" stop-color="#616161"/>
<stop offset="0.324" stop-color="#505050"/>
<stop offset="0.955" stop-color="#242424"/>
<stop offset="1" stop-color="#212121"/>
</linearGradient>
<linearGradient id="paint11_linear_14_71" x1="10.3977" y1="14.0617" x2="89.1695" y2="14.0617" gradientUnits="userSpaceOnUse">
<stop offset="0.001" stop-color="#BFBEBE"/>
<stop offset="0.3" stop-color="#212121" stop-opacity="0"/>
<stop offset="0.7" stop-color="#212121" stop-opacity="0"/>
<stop offset="1" stop-color="#BFBEBE"/>
</linearGradient>
<radialGradient id="paint12_radial_14_71" cx="0" cy="0" r="1" gradientUnits="userSpaceOnUse" gradientTransform="translate(50 95.7837) scale(42.318 22.2042)">
<stop offset="0.598" stop-color="#212121"/>
<stop offset="1" stop-color="#616161"/>
</radialGradient>
</defs>
</svg>
